P3
# PPM Colour Example One Pixel Per File Line
# NOTE: A blank line is required at the end of this file that gist has removed.
4 4
15
1 1 1
1 0 0
2 0 0
15 0 15
3 0 0
0 15 7
4 0 0
5 0 0
6 0 0
7 0 0
8 15 7
9 0 0
15 0 15
10 0 0
11 0 0
12 0 0
